<?xml version="1.0" encoding="utf-8"?>
<!-- Generator: Adobe Illustrator 21.1.0, SVG Export Plug-In . SVG Version: 6.00 Build 0)  -->
<svg version="1.1" id="Layer_1" xmlns="http://www.w3.org/2000/svg" xmlns:xlink="http://www.w3.org/1999/xlink" x="0px" y="0px"
	 viewBox="0 0 100 100" style="enable-background:new 0 0 100 100;" xml:space="preserve">
<style type="text/css">
	.st0{fill:#BF3026;}
</style>
<g>
	<path class="st0" d="M33.9,39.2c-0.6-0.6-1.3-0.9-2.2-0.9s-1.6,0.3-2.2,0.9L22,46.6c-0.6,0.6-0.9,1.3-0.9,2.2
		c0,0.9,0.3,1.6,0.9,2.2l25.1,25.1c0.5,0.5,1.1,0.8,1.8,0.9c0.1,0,0.2,0.1,0.4,0.1c0.8,0,1.6-0.3,2.3-0.9l45-45
		c0.6-0.6,0.9-1.4,0.9-2.2c0-0.9-0.3-1.6-0.9-2.2l-7.4-7.4c-0.6-0.6-1.4-0.9-2.2-0.9c-0.9,0-1.6,0.3-2.2,0.9L49.4,54.7L33.9,39.2z
		 M33.9,39.2"/>
	<path class="st0" d="M93.8,41.9L55.7,80.1c-1.6,1.7-3.6,2.5-6.1,2.5h-1.7l-0.4-0.2c-1.5-0.4-2.9-1.1-4.1-2.3l-25-25.1
		c-1.7-1.7-2.6-3.8-2.6-6.2c0-2.4,0.9-4.5,2.6-6.1l7.4-7.5c1.7-1.7,3.7-2.5,6.2-2.5c2.3,0,4.4,0.9,6.1,2.6l11.6,11.6l24.5-24.6
		L57.8,5.9c-2.2-2.2-4.8-3.3-7.9-3.3c-3.1,0-5.7,1.1-7.9,3.3L5.8,42.1c-2.2,2.2-3.3,4.8-3.3,7.9c0,3.1,1.1,5.7,3.3,7.9L42,94.1
		c2.2,2.2,4.8,3.3,7.9,3.3c3.1,0,5.7-1.1,7.9-3.3l36.2-36.2c2.2-2.2,3.3-4.8,3.3-7.9c0-3.1-1.1-5.7-3.3-7.9L93.8,41.9z M93.8,41.9"
		/>
</g>
</svg>
