<?xml version="1.0" encoding="utf-8"?>
<!-- Generator: Adobe Illustrator 21.1.0, SVG Export Plug-In . SVG Version: 6.00 Build 0)  -->
<svg version="1.1" id="Capa_1" xmlns="http://www.w3.org/2000/svg" xmlns:xlink="http://www.w3.org/1999/xlink" x="0px" y="0px"
	 viewBox="-49 141 512 512" style="enable-background:new -49 141 512 512;" xml:space="preserve">
<style type="text/css">
	.st0{fill:#C02D15;}
</style>
<g>
	<path class="st0" d="M162.5,337.9v29c0,8,6.5,14.5,14.5,14.5h14.5v-58.1H177C169,323.4,162.5,329.9,162.5,337.9z"/>
	<path class="st0" d="M222.5,470.6H237c8,0,14.5-6.5,14.5-14.5v-29c0-8-6.5-14.5-14.5-14.5h-14.5V470.6z"/>
	<path class="st0" d="M208,236.3c-88.1,0-161.7,73.6-161.7,161.7S119.9,557.7,208,557.7S367.7,486.1,367.7,398
		S296.1,236.3,208,236.3z M237,381.5c24,0,43.6,21.5,43.6,45.5v29c0,24-19.5,43.6-43.6,43.6h-14.5v14.5c0,8-6.5,14.5-14.5,14.5
		c-8,0-16.5-6.5-16.5-14.5v-14.5H177c-24,0-43.6-19.5-43.6-43.6c0-8,6.5-14.5,14.5-14.5s14.5,6.5,14.5,14.5c0,8,6.5,14.5,14.5,14.5
		h14.5v-58.1H177c-24,0-43.6-21.5-43.6-45.5v-29c0-24,19.5-43.6,43.6-43.6h14.5v-14.5c0-8,8.4-14.5,16.5-14.5s14.5,6.5,14.5,14.5
		v14.5H237c24,0,43.6,19.5,43.6,43.6c0,8-6.5,14.5-14.5,14.5s-14.5-6.5-14.5-14.5c0-8-6.5-14.5-14.5-14.5h-14.5v58.1H237z"/>
	<path class="st0" d="M208,149.1C71.8,149.1-40.9,261.8-40.9,398S71.8,644.9,208,644.9S454.9,534.1,454.9,398S344.1,149.1,208,149.1
		z M208,587C103.9,587,17,502.3,17,398.2S103.9,207,208,207S397,293.9,397,398S312.1,587,208,587z"/>
</g>
</svg>
