<?xml version="1.0" encoding="utf-8"?>
<!-- Generator: Adobe Illustrator 21.1.0, SVG Export Plug-In . SVG Version: 6.00 Build 0)  -->
<svg version="1.1" id="Layer_1" xmlns="http://www.w3.org/2000/svg" xmlns:xlink="http://www.w3.org/1999/xlink" x="0px" y="0px"
	 viewBox="0 0 500 417" style="enable-background:new 0 0 500 417;" xml:space="preserve">
<style type="text/css">
	.st0{display:none;}
	.st1{display:inline;}
	.st2{fill:#C02D15;}
	.st3{fill:none;}
	.st4{fill:#D5D5D5;}
	.st5{fill:#666666;}
	.st6{fill-rule:evenodd;clip-rule:evenodd;fill:#C02D15;}
	.st7{fill:none;stroke:#C02D15;stroke-miterlimit:10;}
</style>
<g>
	<g class="st0">
		<g class="st1">
			<g>
				<path class="st2" d="M46.6,301.2L46.6,301.2l-1.4,0.7l-0.2-0.8l1.7-0.9h0.9v7.8h-1V301.2z"/>
				<path class="st2" d="M55.7,304.1c0,2.7-1,4.1-2.7,4.1c-1.5,0-2.6-1.4-2.6-4c0-2.6,1.1-4.1,2.7-4.1
					C54.8,300.1,55.7,301.6,55.7,304.1z M51.5,304.2c0,2,0.6,3.2,1.6,3.2c1.1,0,1.6-1.3,1.6-3.3c0-1.9-0.5-3.2-1.6-3.2
					C52.1,300.9,51.5,302,51.5,304.2z"/>
				<path class="st2" d="M56.3,309.5c0.3-0.7,0.6-2,0.7-2.9l1.2-0.1c-0.3,1-0.8,2.4-1.1,2.9L56.3,309.5z"/>
				<path class="st2" d="M64.3,304.1c0,2.7-1,4.1-2.7,4.1c-1.5,0-2.6-1.4-2.6-4c0-2.6,1.1-4.1,2.7-4.1
					C63.4,300.1,64.3,301.6,64.3,304.1z M60.1,304.2c0,2,0.6,3.2,1.6,3.2c1.1,0,1.6-1.3,1.6-3.3c0-1.9-0.5-3.2-1.6-3.2
					C60.8,300.9,60.1,302,60.1,304.2z"/>
				<path class="st2" d="M70.5,304.1c0,2.7-1,4.1-2.7,4.1c-1.5,0-2.6-1.4-2.6-4c0-2.6,1.1-4.1,2.7-4.1
					C69.6,300.1,70.5,301.6,70.5,304.1z M66.3,304.2c0,2,0.6,3.2,1.6,3.2c1.1,0,1.6-1.3,1.6-3.3c0-1.9-0.5-3.2-1.6-3.2
					C66.9,300.9,66.3,302,66.3,304.2z"/>
				<path class="st2" d="M76.6,304.1c0,2.7-1,4.1-2.7,4.1c-1.5,0-2.6-1.4-2.6-4c0-2.6,1.1-4.1,2.7-4.1
					C75.7,300.1,76.6,301.6,76.6,304.1z M72.4,304.2c0,2,0.6,3.2,1.6,3.2c1.1,0,1.6-1.3,1.6-3.3c0-1.9-0.5-3.2-1.6-3.2
					C73.1,300.9,72.4,302,72.4,304.2z"/>
			</g>
		</g>
		<g class="st1">
			<g>
				<path class="st2" d="M44.4,277v-0.6l0.8-0.8c2-1.9,2.9-2.9,2.9-4.1c0-0.8-0.4-1.5-1.5-1.5c-0.7,0-1.3,0.4-1.7,0.7l-0.3-0.7
					c0.5-0.5,1.3-0.8,2.2-0.8c1.7,0,2.4,1.2,2.4,2.3c0,1.4-1,2.6-2.7,4.2l-0.6,0.6v0h3.5v0.9H44.4z"/>
				<path class="st2" d="M55.7,273.1c0,2.7-1,4.1-2.7,4.1c-1.5,0-2.6-1.4-2.6-4c0-2.6,1.1-4.1,2.7-4.1
					C54.8,269.1,55.7,270.6,55.7,273.1z M51.5,273.2c0,2,0.6,3.2,1.6,3.2c1.1,0,1.6-1.3,1.6-3.3c0-1.9-0.5-3.2-1.6-3.2
					C52.1,269.9,51.5,271,51.5,273.2z"/>
				<path class="st2" d="M56.3,278.5c0.3-0.7,0.6-2,0.7-2.9l1.2-0.1c-0.3,1-0.8,2.4-1.1,2.9L56.3,278.5z"/>
				<path class="st2" d="M64.3,273.1c0,2.7-1,4.1-2.7,4.1c-1.5,0-2.6-1.4-2.6-4c0-2.6,1.1-4.1,2.7-4.1
					C63.4,269.1,64.3,270.6,64.3,273.1z M60.1,273.2c0,2,0.6,3.2,1.6,3.2c1.1,0,1.6-1.3,1.6-3.3c0-1.9-0.5-3.2-1.6-3.2
					C60.8,269.9,60.1,271,60.1,273.2z"/>
				<path class="st2" d="M70.5,273.1c0,2.7-1,4.1-2.7,4.1c-1.5,0-2.6-1.4-2.6-4c0-2.6,1.1-4.1,2.7-4.1
					C69.6,269.1,70.5,270.6,70.5,273.1z M66.3,273.2c0,2,0.6,3.2,1.6,3.2c1.1,0,1.6-1.3,1.6-3.3c0-1.9-0.5-3.2-1.6-3.2
					C66.9,269.9,66.3,271,66.3,273.2z"/>
				<path class="st2" d="M76.6,273.1c0,2.7-1,4.1-2.7,4.1c-1.5,0-2.6-1.4-2.6-4c0-2.6,1.1-4.1,2.7-4.1
					C75.7,269.1,76.6,270.6,76.6,273.1z M72.4,273.2c0,2,0.6,3.2,1.6,3.2c1.1,0,1.6-1.3,1.6-3.3c0-1.9-0.5-3.2-1.6-3.2
					C73.1,269.9,72.4,271,72.4,273.2z"/>
			</g>
		</g>
		<g class="st1">
			<g>
				<path class="st2" d="M44.6,244.8c0.3,0.2,1,0.5,1.7,0.5c1.4,0,1.8-0.9,1.8-1.5c0-1.1-1-1.6-2-1.6h-0.6v-0.8h0.6
					c0.8,0,1.7-0.4,1.7-1.3c0-0.6-0.4-1.2-1.4-1.2c-0.6,0-1.2,0.3-1.6,0.5l-0.3-0.8c0.4-0.3,1.2-0.6,2-0.6c1.5,0,2.2,0.9,2.2,1.9
					c0,0.8-0.5,1.5-1.4,1.8v0c1,0.2,1.7,0.9,1.7,2c0,1.2-1,2.3-2.8,2.3c-0.9,0-1.6-0.3-2-0.5L44.6,244.8z"/>
				<path class="st2" d="M55.7,242.1c0,2.7-1,4.1-2.7,4.1c-1.5,0-2.6-1.4-2.6-4c0-2.6,1.1-4.1,2.7-4.1
					C54.8,238.1,55.7,239.6,55.7,242.1z M51.5,242.2c0,2,0.6,3.2,1.6,3.2c1.1,0,1.6-1.3,1.6-3.3c0-1.9-0.5-3.2-1.6-3.2
					C52.1,238.9,51.5,240,51.5,242.2z"/>
				<path class="st2" d="M56.3,247.5c0.3-0.7,0.6-2,0.7-2.9l1.2-0.1c-0.3,1-0.8,2.4-1.1,2.9L56.3,247.5z"/>
				<path class="st2" d="M64.3,242.1c0,2.7-1,4.1-2.7,4.1c-1.5,0-2.6-1.4-2.6-4c0-2.6,1.1-4.1,2.7-4.1
					C63.4,238.1,64.3,239.6,64.3,242.1z M60.1,242.2c0,2,0.6,3.2,1.6,3.2c1.1,0,1.6-1.3,1.6-3.3c0-1.9-0.5-3.2-1.6-3.2
					C60.8,238.9,60.1,240,60.1,242.2z"/>
				<path class="st2" d="M70.5,242.1c0,2.7-1,4.1-2.7,4.1c-1.5,0-2.6-1.4-2.6-4c0-2.6,1.1-4.1,2.7-4.1
					C69.6,238.1,70.5,239.6,70.5,242.1z M66.3,242.2c0,2,0.6,3.2,1.6,3.2c1.1,0,1.6-1.3,1.6-3.3c0-1.9-0.5-3.2-1.6-3.2
					C66.9,238.9,66.3,240,66.3,242.2z"/>
				<path class="st2" d="M76.6,242.1c0,2.7-1,4.1-2.7,4.1c-1.5,0-2.6-1.4-2.6-4c0-2.6,1.1-4.1,2.7-4.1
					C75.7,238.1,76.6,239.6,76.6,242.1z M72.4,242.2c0,2,0.6,3.2,1.6,3.2c1.1,0,1.6-1.3,1.6-3.3c0-1.9-0.5-3.2-1.6-3.2
					C73.1,238.9,72.4,240,72.4,242.2z"/>
			</g>
		</g>
		<g class="st1">
			<g>
				<path class="st2" d="M47.6,214v-2.1H44v-0.7l3.5-5h1.1v4.8h1.1v0.8h-1.1v2.1H47.6z M47.6,211.1v-2.6c0-0.4,0-0.8,0-1.2h0
					c-0.2,0.5-0.4,0.8-0.6,1.2l-1.9,2.7v0H47.6z"/>
				<path class="st2" d="M55.7,210.1c0,2.7-1,4.1-2.7,4.1c-1.5,0-2.6-1.4-2.6-4c0-2.6,1.1-4.1,2.7-4.1
					C54.8,206.1,55.7,207.6,55.7,210.1z M51.5,210.2c0,2,0.6,3.2,1.6,3.2c1.1,0,1.6-1.3,1.6-3.3c0-1.9-0.5-3.2-1.6-3.2
					C52.1,206.9,51.5,208,51.5,210.2z"/>
				<path class="st2" d="M56.3,215.5c0.3-0.7,0.6-2,0.7-2.9l1.2-0.1c-0.3,1-0.8,2.4-1.1,2.9L56.3,215.5z"/>
				<path class="st2" d="M64.3,210.1c0,2.7-1,4.1-2.7,4.1c-1.5,0-2.6-1.4-2.6-4c0-2.6,1.1-4.1,2.7-4.1
					C63.4,206.1,64.3,207.6,64.3,210.1z M60.1,210.2c0,2,0.6,3.2,1.6,3.2c1.1,0,1.6-1.3,1.6-3.3c0-1.9-0.5-3.2-1.6-3.2
					C60.8,206.9,60.1,208,60.1,210.2z"/>
				<path class="st2" d="M70.5,210.1c0,2.7-1,4.1-2.7,4.1c-1.5,0-2.6-1.4-2.6-4c0-2.6,1.1-4.1,2.7-4.1
					C69.6,206.1,70.5,207.6,70.5,210.1z M66.3,210.2c0,2,0.6,3.2,1.6,3.2c1.1,0,1.6-1.3,1.6-3.3c0-1.9-0.5-3.2-1.6-3.2
					C66.9,206.9,66.3,208,66.3,210.2z"/>
				<path class="st2" d="M76.6,210.1c0,2.7-1,4.1-2.7,4.1c-1.5,0-2.6-1.4-2.6-4c0-2.6,1.1-4.1,2.7-4.1
					C75.7,206.1,76.6,207.6,76.6,210.1z M72.4,210.2c0,2,0.6,3.2,1.6,3.2c1.1,0,1.6-1.3,1.6-3.3c0-1.9-0.5-3.2-1.6-3.2
					C73.1,206.9,72.4,208,72.4,210.2z"/>
			</g>
		</g>
		<g class="st1">
			<g>
				<path class="st2" d="M49,176.1h-3l-0.3,2c0.2,0,0.3,0,0.6,0c0.6,0,1.2,0.1,1.7,0.4c0.6,0.3,1.1,1,1.1,2c0,1.5-1.2,2.7-2.9,2.7
					c-0.9,0-1.6-0.2-1.9-0.5l0.3-0.8c0.3,0.2,1,0.4,1.7,0.4c1,0,1.8-0.6,1.8-1.7c0-1-0.7-1.7-2.2-1.7c-0.4,0-0.8,0-1.1,0.1l0.5-3.7
					H49V176.1z"/>
				<path class="st2" d="M55.7,179.1c0,2.7-1,4.1-2.7,4.1c-1.5,0-2.6-1.4-2.6-4c0-2.6,1.1-4.1,2.7-4.1
					C54.8,175.1,55.7,176.6,55.7,179.1z M51.5,179.2c0,2,0.6,3.2,1.6,3.2c1.1,0,1.6-1.3,1.6-3.3c0-1.9-0.5-3.2-1.6-3.2
					C52.1,175.9,51.5,177,51.5,179.2z"/>
				<path class="st2" d="M56.3,184.5c0.3-0.7,0.6-2,0.7-2.9l1.2-0.1c-0.3,1-0.8,2.4-1.1,2.9L56.3,184.5z"/>
				<path class="st2" d="M64.3,179.1c0,2.7-1,4.1-2.7,4.1c-1.5,0-2.6-1.4-2.6-4c0-2.6,1.1-4.1,2.7-4.1
					C63.4,175.1,64.3,176.6,64.3,179.1z M60.1,179.2c0,2,0.6,3.2,1.6,3.2c1.1,0,1.6-1.3,1.6-3.3c0-1.9-0.5-3.2-1.6-3.2
					C60.8,175.9,60.1,177,60.1,179.2z"/>
				<path class="st2" d="M70.5,179.1c0,2.7-1,4.1-2.7,4.1c-1.5,0-2.6-1.4-2.6-4c0-2.6,1.1-4.1,2.7-4.1
					C69.6,175.1,70.5,176.6,70.5,179.1z M66.3,179.2c0,2,0.6,3.2,1.6,3.2c1.1,0,1.6-1.3,1.6-3.3c0-1.9-0.5-3.2-1.6-3.2
					C66.9,175.9,66.3,177,66.3,179.2z"/>
				<path class="st2" d="M76.6,179.1c0,2.7-1,4.1-2.7,4.1c-1.5,0-2.6-1.4-2.6-4c0-2.6,1.1-4.1,2.7-4.1
					C75.7,175.1,76.6,176.6,76.6,179.1z M72.4,179.2c0,2,0.6,3.2,1.6,3.2c1.1,0,1.6-1.3,1.6-3.3c0-1.9-0.5-3.2-1.6-3.2
					C73.1,175.9,72.4,177,72.4,179.2z"/>
			</g>
		</g>
		<g class="st1">
			<g>
				<path class="st2" d="M48.8,145c-0.2,0-0.5,0-0.8,0c-1.7,0.3-2.5,1.5-2.7,2.8h0c0.4-0.5,1-0.9,1.9-0.9c1.4,0,2.4,1,2.4,2.5
					c0,1.4-1,2.7-2.6,2.7c-1.7,0-2.8-1.3-2.8-3.3c0-1.5,0.6-2.7,1.3-3.5c0.6-0.6,1.5-1,2.5-1.2c0.3,0,0.6-0.1,0.8-0.1V145z
					 M48.5,149.5c0-1.1-0.6-1.8-1.6-1.8c-0.6,0-1.2,0.4-1.5,1c-0.1,0.1-0.1,0.3-0.1,0.5c0,1.3,0.6,2.2,1.7,2.2
					C47.9,151.3,48.5,150.6,48.5,149.5z"/>
				<path class="st2" d="M55.7,148.1c0,2.7-1,4.1-2.7,4.1c-1.5,0-2.6-1.4-2.6-4c0-2.6,1.1-4.1,2.7-4.1
					C54.8,144.1,55.7,145.6,55.7,148.1z M51.5,148.2c0,2,0.6,3.2,1.6,3.2c1.1,0,1.6-1.3,1.6-3.3c0-1.9-0.5-3.2-1.6-3.2
					C52.1,144.9,51.5,146,51.5,148.2z"/>
				<path class="st2" d="M56.3,153.5c0.3-0.7,0.6-2,0.7-2.9l1.2-0.1c-0.3,1-0.8,2.4-1.1,2.9L56.3,153.5z"/>
				<path class="st2" d="M64.3,148.1c0,2.7-1,4.1-2.7,4.1c-1.5,0-2.6-1.4-2.6-4c0-2.6,1.1-4.1,2.7-4.1
					C63.4,144.1,64.3,145.6,64.3,148.1z M60.1,148.2c0,2,0.6,3.2,1.6,3.2c1.1,0,1.6-1.3,1.6-3.3c0-1.9-0.5-3.2-1.6-3.2
					C60.8,144.9,60.1,146,60.1,148.2z"/>
				<path class="st2" d="M70.5,148.1c0,2.7-1,4.1-2.7,4.1c-1.5,0-2.6-1.4-2.6-4c0-2.6,1.1-4.1,2.7-4.1
					C69.6,144.1,70.5,145.6,70.5,148.1z M66.3,148.2c0,2,0.6,3.2,1.6,3.2c1.1,0,1.6-1.3,1.6-3.3c0-1.9-0.5-3.2-1.6-3.2
					C66.9,144.9,66.3,146,66.3,148.2z"/>
				<path class="st2" d="M76.6,148.1c0,2.7-1,4.1-2.7,4.1c-1.5,0-2.6-1.4-2.6-4c0-2.6,1.1-4.1,2.7-4.1
					C75.7,144.1,76.6,145.6,76.6,148.1z M72.4,148.2c0,2,0.6,3.2,1.6,3.2c1.1,0,1.6-1.3,1.6-3.3c0-1.9-0.5-3.2-1.6-3.2
					C73.1,144.9,72.4,146,72.4,148.2z"/>
			</g>
		</g>
		<g class="st1">
			<g>
				<path class="st2" d="M49.4,112.2v0.7L46,120h-1.1l3.4-6.9v0h-3.8v-0.9H49.4z"/>
				<path class="st2" d="M55.7,116.1c0,2.7-1,4.1-2.7,4.1c-1.5,0-2.6-1.4-2.6-4c0-2.6,1.1-4.1,2.7-4.1
					C54.8,112.1,55.7,113.6,55.7,116.1z M51.5,116.2c0,2,0.6,3.2,1.6,3.2c1.1,0,1.6-1.3,1.6-3.3c0-1.9-0.5-3.2-1.6-3.2
					C52.1,112.9,51.5,114,51.5,116.2z"/>
				<path class="st2" d="M56.3,121.5c0.3-0.7,0.6-2,0.7-2.9l1.2-0.1c-0.3,1-0.8,2.4-1.1,2.9L56.3,121.5z"/>
				<path class="st2" d="M64.3,116.1c0,2.7-1,4.1-2.7,4.1c-1.5,0-2.6-1.4-2.6-4c0-2.6,1.1-4.1,2.7-4.1
					C63.4,112.1,64.3,113.6,64.3,116.1z M60.1,116.2c0,2,0.6,3.2,1.6,3.2c1.1,0,1.6-1.3,1.6-3.3c0-1.9-0.5-3.2-1.6-3.2
					C60.8,112.9,60.1,114,60.1,116.2z"/>
				<path class="st2" d="M70.5,116.1c0,2.7-1,4.1-2.7,4.1c-1.5,0-2.6-1.4-2.6-4c0-2.6,1.1-4.1,2.7-4.1
					C69.6,112.1,70.5,113.6,70.5,116.1z M66.3,116.2c0,2,0.6,3.2,1.6,3.2c1.1,0,1.6-1.3,1.6-3.3c0-1.9-0.5-3.2-1.6-3.2
					C66.9,112.9,66.3,114,66.3,116.2z"/>
				<path class="st2" d="M76.6,116.1c0,2.7-1,4.1-2.7,4.1c-1.5,0-2.6-1.4-2.6-4c0-2.6,1.1-4.1,2.7-4.1
					C75.7,112.1,76.6,113.6,76.6,116.1z M72.4,116.2c0,2,0.6,3.2,1.6,3.2c1.1,0,1.6-1.3,1.6-3.3c0-1.9-0.5-3.2-1.6-3.2
					C73.1,112.9,72.4,114,72.4,116.2z"/>
			</g>
		</g>
		<g class="st1">
			<g>
				<path class="st2" d="M44.3,86.1c0-1,0.6-1.7,1.5-2.1l0,0c-0.9-0.4-1.2-1.1-1.2-1.8c0-1.2,1-2.1,2.4-2.1c1.5,0,2.3,0.9,2.3,1.9
					c0,0.7-0.3,1.4-1.3,1.8v0c1,0.4,1.6,1.1,1.6,2c0,1.4-1.2,2.3-2.7,2.3C45.2,88.2,44.3,87.2,44.3,86.1z M48.5,86
					c0-0.9-0.7-1.4-1.7-1.7c-0.9,0.3-1.4,0.9-1.4,1.6c0,0.8,0.6,1.5,1.6,1.5C47.8,87.4,48.5,86.8,48.5,86z M45.6,82.1
					c0,0.8,0.6,1.2,1.5,1.4c0.7-0.2,1.2-0.7,1.2-1.4c0-0.6-0.4-1.3-1.3-1.3C46,80.9,45.6,81.4,45.6,82.1z"/>
				<path class="st2" d="M55.7,84.1c0,2.7-1,4.1-2.7,4.1c-1.5,0-2.6-1.4-2.6-4c0-2.6,1.1-4.1,2.7-4.1C54.8,80.1,55.7,81.6,55.7,84.1
					z M51.5,84.2c0,2,0.6,3.2,1.6,3.2c1.1,0,1.6-1.3,1.6-3.3c0-1.9-0.5-3.2-1.6-3.2C52.1,80.9,51.5,82,51.5,84.2z"/>
				<path class="st2" d="M56.3,89.5c0.3-0.7,0.6-2,0.7-2.9l1.2-0.1c-0.3,1-0.8,2.4-1.1,2.9L56.3,89.5z"/>
				<path class="st2" d="M64.3,84.1c0,2.7-1,4.1-2.7,4.1c-1.5,0-2.6-1.4-2.6-4c0-2.6,1.1-4.1,2.7-4.1C63.4,80.1,64.3,81.6,64.3,84.1
					z M60.1,84.2c0,2,0.6,3.2,1.6,3.2c1.1,0,1.6-1.3,1.6-3.3c0-1.9-0.5-3.2-1.6-3.2C60.8,80.9,60.1,82,60.1,84.2z"/>
				<path class="st2" d="M70.5,84.1c0,2.7-1,4.1-2.7,4.1c-1.5,0-2.6-1.4-2.6-4c0-2.6,1.1-4.1,2.7-4.1C69.6,80.1,70.5,81.6,70.5,84.1
					z M66.3,84.2c0,2,0.6,3.2,1.6,3.2c1.1,0,1.6-1.3,1.6-3.3c0-1.9-0.5-3.2-1.6-3.2C66.9,80.9,66.3,82,66.3,84.2z"/>
				<path class="st2" d="M76.6,84.1c0,2.7-1,4.1-2.7,4.1c-1.5,0-2.6-1.4-2.6-4c0-2.6,1.1-4.1,2.7-4.1C75.7,80.1,76.6,81.6,76.6,84.1
					z M72.4,84.2c0,2,0.6,3.2,1.6,3.2c1.1,0,1.6-1.3,1.6-3.3c0-1.9-0.5-3.2-1.6-3.2C73.1,80.9,72.4,82,72.4,84.2z"/>
			</g>
		</g>
		<g class="st1">
			<g>
				<path class="st2" d="M45,56.3c0.2,0,0.5,0,0.9,0c0.6-0.1,1.2-0.3,1.6-0.8c0.5-0.5,0.9-1.2,1-2.1h0c-0.4,0.5-1.1,0.8-1.8,0.8
					c-1.4,0-2.3-1.1-2.3-2.4c0-1.5,1.1-2.8,2.7-2.8s2.6,1.3,2.6,3.3c0,1.7-0.6,2.9-1.3,3.7c-0.6,0.6-1.4,0.9-2.3,1
					c-0.4,0.1-0.7,0.1-1,0.1V56.3z M45.4,51.8c0,1,0.6,1.7,1.5,1.7c0.7,0,1.3-0.3,1.5-0.8c0.1-0.1,0.1-0.2,0.1-0.4
					c0-1.3-0.5-2.4-1.6-2.4C46,49.9,45.4,50.7,45.4,51.8z"/>
				<path class="st2" d="M55.7,53.1c0,2.7-1,4.1-2.7,4.1c-1.5,0-2.6-1.4-2.6-4c0-2.6,1.1-4.1,2.7-4.1C54.8,49.1,55.7,50.6,55.7,53.1
					z M51.5,53.2c0,2,0.6,3.2,1.6,3.2c1.1,0,1.6-1.3,1.6-3.3c0-1.9-0.5-3.2-1.6-3.2C52.1,49.9,51.5,51,51.5,53.2z"/>
				<path class="st2" d="M56.3,58.5c0.3-0.7,0.6-2,0.7-2.9l1.2-0.1c-0.3,1-0.8,2.4-1.1,2.9L56.3,58.5z"/>
				<path class="st2" d="M64.3,53.1c0,2.7-1,4.1-2.7,4.1c-1.5,0-2.6-1.4-2.6-4c0-2.6,1.1-4.1,2.7-4.1C63.4,49.1,64.3,50.6,64.3,53.1
					z M60.1,53.2c0,2,0.6,3.2,1.6,3.2c1.1,0,1.6-1.3,1.6-3.3c0-1.9-0.5-3.2-1.6-3.2C60.8,49.9,60.1,51,60.1,53.2z"/>
				<path class="st2" d="M70.5,53.1c0,2.7-1,4.1-2.7,4.1c-1.5,0-2.6-1.4-2.6-4c0-2.6,1.1-4.1,2.7-4.1C69.6,49.1,70.5,50.6,70.5,53.1
					z M66.3,53.2c0,2,0.6,3.2,1.6,3.2c1.1,0,1.6-1.3,1.6-3.3c0-1.9-0.5-3.2-1.6-3.2C66.9,49.9,66.3,51,66.3,53.2z"/>
				<path class="st2" d="M76.6,53.1c0,2.7-1,4.1-2.7,4.1c-1.5,0-2.6-1.4-2.6-4c0-2.6,1.1-4.1,2.7-4.1C75.7,49.1,76.6,50.6,76.6,53.1
					z M72.4,53.2c0,2,0.6,3.2,1.6,3.2c1.1,0,1.6-1.3,1.6-3.3c0-1.9-0.5-3.2-1.6-3.2C73.1,49.9,72.4,51,72.4,53.2z"/>
			</g>
		</g>
	</g>
	<g>
		<g>
			<rect x="408.4" y="77.7" class="st3" width="67.3" height="30.9"/>
			<rect x="340.6" y="77.7" class="st3" width="67.3" height="30.9"/>
			<rect x="272.8" y="77.7" class="st3" width="67.3" height="30.9"/>
			<rect x="205" y="172" class="st3" width="67.3" height="30.9"/>
			<rect x="272.8" y="234.7" class="st3" width="67.3" height="30.9"/>
			<rect x="340.6" y="234.7" class="st3" width="67.3" height="30.9"/>
			<rect x="205" y="234.7" class="st3" width="67.3" height="30.9"/>
			<rect x="408.4" y="234.7" class="st3" width="67.3" height="30.9"/>
			<rect x="205" y="140.5" class="st3" width="67.3" height="30.9"/>
			<rect x="205" y="203.3" class="st3" width="67.3" height="30.9"/>
			<rect x="205" y="109.1" class="st3" width="67.3" height="30.9"/>
			<rect x="205" y="77.7" class="st3" width="67.3" height="30.9"/>
			<rect x="69.3" y="140.5" class="st3" width="67.3" height="30.9"/>
			<rect x="69.3" y="234.7" class="st3" width="67.3" height="30.9"/>
			<rect x="69.3" y="203.3" class="st3" width="67.3" height="30.9"/>
			<rect x="69.3" y="172" class="st3" width="67.3" height="30.9"/>
			<rect x="69.3" y="266.2" class="st3" width="67.3" height="30.9"/>
			<rect x="69.3" y="297.6" class="st3" width="67.3" height="30.9"/>
			<rect x="272.8" y="297.6" class="st3" width="67.3" height="30.9"/>
			<rect x="205" y="297.6" class="st3" width="67.3" height="30.9"/>
			<rect x="137.2" y="297.6" class="st3" width="67.3" height="30.9"/>
			<rect x="69.3" y="109.1" class="st3" width="67.3" height="30.9"/>
			<rect x="272.8" y="14.9" class="st3" width="67.3" height="30.9"/>
			<rect x="340.6" y="297.6" class="st3" width="67.3" height="30.9"/>
			<rect x="340.6" y="14.9" class="st3" width="67.3" height="30.9"/>
			<rect x="408.4" y="14.9" class="st3" width="67.3" height="30.9"/>
			<rect x="69.3" y="46.3" class="st3" width="67.3" height="30.9"/>
			<rect x="137.2" y="14.9" class="st3" width="67.3" height="30.9"/>
			<rect x="69.3" y="77.7" class="st3" width="67.3" height="30.9"/>
			<rect x="69.3" y="14.9" class="st3" width="67.3" height="30.9"/>
			<rect x="205" y="14.9" class="st3" width="67.3" height="30.9"/>
			<rect x="137.2" y="203.3" class="st3" width="67.3" height="30.9"/>
			<rect x="137.2" y="234.7" class="st3" width="67.3" height="30.9"/>
			<rect x="205" y="266.2" class="st3" width="67.3" height="30.9"/>
			<rect x="340.6" y="266.2" class="st3" width="67.3" height="30.9"/>
			<rect x="408.4" y="266.2" class="st3" width="67.3" height="30.9"/>
			<rect x="272.8" y="266.2" class="st3" width="67.3" height="30.9"/>
			<rect x="137.2" y="172" class="st3" width="67.3" height="30.9"/>
			<rect x="137.2" y="266.2" class="st3" width="67.3" height="30.9"/>
			<rect x="137.2" y="109.1" class="st3" width="67.3" height="30.9"/>
			<rect x="272.8" y="46.3" class="st3" width="67.3" height="30.9"/>
			<rect x="205" y="46.3" class="st3" width="67.3" height="30.9"/>
			<rect x="137.2" y="46.3" class="st3" width="67.3" height="30.9"/>
			<rect x="137.2" y="77.7" class="st3" width="67.3" height="30.9"/>
			<rect x="137.2" y="140.5" class="st3" width="67.3" height="30.9"/>
			<rect x="408.4" y="46.3" class="st3" width="67.3" height="30.9"/>
			<rect x="340.6" y="46.3" class="st3" width="67.3" height="30.9"/>
			<rect x="340.6" y="140.5" class="st3" width="67.3" height="30.9"/>
			<rect x="340.6" y="172" class="st3" width="67.3" height="30.9"/>
			<rect x="408.4" y="172" class="st3" width="67.3" height="30.9"/>
			<rect x="408.4" y="109.1" class="st3" width="67.3" height="30.9"/>
			<rect x="408.4" y="140.5" class="st3" width="67.3" height="30.9"/>
			<rect x="340.6" y="109.1" class="st3" width="67.3" height="30.9"/>
			<rect x="272.8" y="109.1" class="st3" width="67.3" height="30.9"/>
			<rect x="272.8" y="172" class="st3" width="67.3" height="30.9"/>
			<rect x="408.4" y="203.3" class="st3" width="67.3" height="30.9"/>
			<rect x="272.8" y="203.3" class="st3" width="67.3" height="30.9"/>
			<rect x="340.6" y="203.3" class="st3" width="67.3" height="30.9"/>
			<rect x="272.8" y="140.5" class="st3" width="67.3" height="30.9"/>
			<rect x="408.4" y="297.6" class="st3" width="67.3" height="30.9"/>
			<rect x="272.8" y="14.3" class="st4" width="67.3" height="0.6"/>
			<rect x="137.2" y="14.3" class="st4" width="67.3" height="0.6"/>
			<rect x="340.6" y="14.3" class="st4" width="67.3" height="0.6"/>
			<rect x="69.3" y="14.3" class="st4" width="67.3" height="0.6"/>
			<rect x="408.4" y="14.3" class="st4" width="67.3" height="0.6"/>
			<rect x="205" y="14.3" class="st4" width="67.3" height="0.6"/>
			<polygon class="st4" points="69.3,297.6 69.3,297 69.3,266.2 69.3,265.6 69.3,234.7 69.3,234.2 69.3,203.3 69.3,202.8 69.3,172 
				69.3,171.4 69.3,140.5 69.3,140 69.3,109.1 69.3,108.6 69.3,77.7 69.3,77.2 69.3,46.3 69.3,45.8 69.3,14.9 69.3,14.3 68.9,14.3 
				68.9,329 69.3,329 69.3,328.4 			"/>
			<rect x="340.6" y="45.8" class="st4" width="67.3" height="0.5"/>
			<rect x="408.4" y="45.8" class="st4" width="67.3" height="0.5"/>
			<rect x="69.3" y="45.8" class="st4" width="67.3" height="0.5"/>
			<rect x="205" y="45.8" class="st4" width="67.3" height="0.5"/>
			<rect x="137.2" y="45.8" class="st4" width="67.3" height="0.5"/>
			<rect x="272.8" y="45.8" class="st4" width="67.3" height="0.5"/>
			<rect x="137.2" y="77.2" class="st4" width="67.3" height="0.5"/>
			<rect x="272.8" y="77.2" class="st4" width="67.3" height="0.5"/>
			<rect x="340.6" y="77.2" class="st4" width="67.3" height="0.5"/>
			<rect x="408.4" y="77.2" class="st4" width="67.3" height="0.5"/>
			<rect x="205" y="77.2" class="st4" width="67.3" height="0.5"/>
			<rect x="69.3" y="77.2" class="st4" width="67.3" height="0.5"/>
			<rect x="340.6" y="108.6" class="st4" width="67.3" height="0.5"/>
			<rect x="272.8" y="108.6" class="st4" width="67.3" height="0.5"/>
			<rect x="205" y="108.6" class="st4" width="67.3" height="0.5"/>
			<rect x="137.2" y="108.6" class="st4" width="67.3" height="0.5"/>
			<rect x="69.3" y="108.6" class="st4" width="67.3" height="0.5"/>
			<rect x="408.4" y="108.6" class="st4" width="67.3" height="0.5"/>
			<rect x="205" y="140" class="st4" width="67.3" height="0.5"/>
			<rect x="137.2" y="140" class="st4" width="67.3" height="0.5"/>
			<rect x="69.3" y="140" class="st4" width="67.3" height="0.5"/>
			<rect x="408.4" y="140" class="st4" width="67.3" height="0.5"/>
			<rect x="340.6" y="140" class="st4" width="67.3" height="0.5"/>
			<rect x="272.8" y="140" class="st4" width="67.3" height="0.5"/>
			<rect x="408.4" y="171.4" class="st4" width="67.3" height="0.6"/>
			<rect x="69.3" y="171.4" class="st4" width="67.3" height="0.6"/>
			<rect x="340.6" y="171.4" class="st4" width="67.3" height="0.6"/>
			<rect x="137.2" y="171.4" class="st4" width="67.3" height="0.6"/>
			<rect x="272.8" y="171.4" class="st4" width="67.3" height="0.6"/>
			<rect x="205" y="171.4" class="st4" width="67.3" height="0.6"/>
			<rect x="137.2" y="202.8" class="st4" width="67.3" height="0.5"/>
			<rect x="340.6" y="202.8" class="st4" width="67.3" height="0.5"/>
			<rect x="205" y="202.8" class="st4" width="67.3" height="0.5"/>
			<rect x="272.8" y="202.8" class="st4" width="67.3" height="0.5"/>
			<rect x="408.4" y="202.8" class="st4" width="67.3" height="0.5"/>
			<rect x="69.3" y="202.8" class="st4" width="67.3" height="0.5"/>
			<rect x="408.4" y="234.2" class="st4" width="67.3" height="0.5"/>
			<rect x="272.8" y="234.2" class="st4" width="67.3" height="0.5"/>
			<rect x="340.6" y="234.2" class="st4" width="67.3" height="0.5"/>
			<rect x="69.3" y="234.2" class="st4" width="67.3" height="0.5"/>
			<rect x="137.2" y="234.2" class="st4" width="67.3" height="0.5"/>
			<rect x="205" y="234.2" class="st4" width="67.3" height="0.5"/>
			<rect x="205" y="265.6" class="st4" width="67.3" height="0.5"/>
			<rect x="272.8" y="265.6" class="st4" width="67.3" height="0.5"/>
			<rect x="408.4" y="265.6" class="st4" width="67.3" height="0.5"/>
			<rect x="340.6" y="265.6" class="st4" width="67.3" height="0.5"/>
			<rect x="137.2" y="265.6" class="st4" width="67.3" height="0.5"/>
			<rect x="69.3" y="265.6" class="st4" width="67.3" height="0.5"/>
			<rect x="272.8" y="297" class="st4" width="67.3" height="0.5"/>
			<rect x="340.6" y="297" class="st4" width="67.3" height="0.5"/>
			<rect x="408.4" y="297" class="st4" width="67.3" height="0.5"/>
			<rect x="205" y="297" class="st4" width="67.3" height="0.5"/>
			<rect x="137.2" y="297" class="st4" width="67.3" height="0.5"/>
			<rect x="69.3" y="297" class="st4" width="67.3" height="0.5"/>
			<rect x="137.2" y="328.4" class="st4" width="67.3" height="0.6"/>
			<rect x="69.3" y="328.4" class="st4" width="67.3" height="0.6"/>
			<rect x="340.6" y="328.4" class="st4" width="67.3" height="0.6"/>
			<rect x="408.4" y="328.4" class="st4" width="67.3" height="0.6"/>
			<rect x="272.8" y="328.4" class="st4" width="67.3" height="0.6"/>
			<rect x="205" y="328.4" class="st4" width="67.3" height="0.6"/>
			<rect x="136.7" y="203.3" class="st4" width="0.5" height="30.9"/>
			<rect x="136.7" y="172" class="st4" width="0.5" height="30.9"/>
			<rect x="136.7" y="140.5" class="st4" width="0.5" height="30.9"/>
			<rect x="136.7" y="77.7" class="st4" width="0.5" height="30.9"/>
			<rect x="136.7" y="46.3" class="st4" width="0.5" height="30.9"/>
			<rect x="136.7" y="234.7" class="st4" width="0.5" height="30.9"/>
			<rect x="136.7" y="297.6" class="st4" width="0.5" height="30.9"/>
			<rect x="136.7" y="14.9" class="st4" width="0.5" height="30.9"/>
			<rect x="136.7" y="109.1" class="st4" width="0.5" height="30.9"/>
			<rect x="136.7" y="266.2" class="st4" width="0.5" height="30.9"/>
			<rect x="136.7" y="14.3" class="st4" width="0.5" height="0.6"/>
			<rect x="136.7" y="45.8" class="st4" width="0.5" height="0.5"/>
			<rect x="136.7" y="77.2" class="st4" width="0.5" height="0.5"/>
			<rect x="136.7" y="108.6" class="st4" width="0.5" height="0.5"/>
			<rect x="136.7" y="140" class="st4" width="0.5" height="0.5"/>
			<rect x="136.7" y="171.4" class="st4" width="0.5" height="0.6"/>
			<rect x="136.7" y="202.8" class="st4" width="0.5" height="0.5"/>
			<rect x="136.7" y="234.2" class="st4" width="0.5" height="0.5"/>
			<rect x="136.7" y="265.6" class="st4" width="0.5" height="0.5"/>
			<rect x="136.7" y="297" class="st4" width="0.5" height="0.5"/>
			<rect x="136.7" y="328.4" class="st4" width="0.5" height="0.6"/>
			<rect x="204.5" y="297.6" class="st4" width="0.5" height="30.9"/>
			<rect x="204.5" y="266.2" class="st4" width="0.5" height="30.9"/>
			<rect x="204.5" y="77.7" class="st4" width="0.5" height="30.9"/>
			<rect x="204.5" y="172" class="st4" width="0.5" height="30.9"/>
			<rect x="204.5" y="109.1" class="st4" width="0.5" height="30.9"/>
			<rect x="204.5" y="203.3" class="st4" width="0.5" height="30.9"/>
			<rect x="204.5" y="46.3" class="st4" width="0.5" height="30.9"/>
			<rect x="204.5" y="14.9" class="st4" width="0.5" height="30.9"/>
			<rect x="204.5" y="234.7" class="st4" width="0.5" height="30.9"/>
			<rect x="204.5" y="140.5" class="st4" width="0.5" height="30.9"/>
			<rect x="204.5" y="14.3" class="st4" width="0.5" height="0.6"/>
			<rect x="204.5" y="45.8" class="st4" width="0.5" height="0.5"/>
			<rect x="204.5" y="77.2" class="st4" width="0.5" height="0.5"/>
			<rect x="204.5" y="108.6" class="st4" width="0.5" height="0.5"/>
			<rect x="204.5" y="140" class="st4" width="0.5" height="0.5"/>
			<rect x="204.5" y="171.4" class="st4" width="0.5" height="0.6"/>
			<rect x="204.5" y="202.8" class="st4" width="0.5" height="0.5"/>
			<rect x="204.5" y="234.2" class="st4" width="0.5" height="0.5"/>
			<rect x="204.5" y="265.6" class="st4" width="0.5" height="0.5"/>
			<rect x="204.5" y="297" class="st4" width="0.5" height="0.5"/>
			<rect x="204.5" y="328.4" class="st4" width="0.5" height="0.6"/>
			<rect x="272.3" y="266.2" class="st4" width="0.5" height="30.9"/>
			<rect x="272.3" y="46.3" class="st4" width="0.5" height="30.9"/>
			<rect x="272.3" y="14.9" class="st4" width="0.5" height="30.9"/>
			<rect x="272.3" y="234.7" class="st4" width="0.5" height="30.9"/>
			<rect x="272.3" y="77.7" class="st4" width="0.5" height="30.9"/>
			<rect x="272.3" y="109.1" class="st4" width="0.5" height="30.9"/>
			<rect x="272.3" y="172" class="st4" width="0.5" height="30.9"/>
			<rect x="272.3" y="203.3" class="st4" width="0.5" height="30.9"/>
			<rect x="272.3" y="140.5" class="st4" width="0.5" height="30.9"/>
			<rect x="272.3" y="297.6" class="st4" width="0.5" height="30.9"/>
			<rect x="272.3" y="14.3" class="st4" width="0.5" height="0.6"/>
			<rect x="272.3" y="45.8" class="st4" width="0.5" height="0.5"/>
			<rect x="272.3" y="77.2" class="st4" width="0.5" height="0.5"/>
			<rect x="272.3" y="108.6" class="st4" width="0.5" height="0.5"/>
			<rect x="272.3" y="140" class="st4" width="0.5" height="0.5"/>
			<rect x="272.3" y="171.4" class="st4" width="0.5" height="0.6"/>
			<rect x="272.3" y="202.8" class="st4" width="0.5" height="0.5"/>
			<rect x="272.3" y="234.2" class="st4" width="0.5" height="0.5"/>
			<rect x="272.3" y="265.6" class="st4" width="0.5" height="0.5"/>
			<rect x="272.3" y="297" class="st4" width="0.5" height="0.5"/>
			<rect x="272.3" y="328.4" class="st4" width="0.5" height="0.6"/>
			<rect x="340.1" y="297.6" class="st4" width="0.5" height="30.9"/>
			<rect x="340.1" y="172" class="st4" width="0.5" height="30.9"/>
			<rect x="340.1" y="140.5" class="st4" width="0.5" height="30.9"/>
			<rect x="340.1" y="234.7" class="st4" width="0.5" height="30.9"/>
			<rect x="340.1" y="14.9" class="st4" width="0.5" height="30.9"/>
			<rect x="340.1" y="46.3" class="st4" width="0.5" height="30.9"/>
			<rect x="340.1" y="109.1" class="st4" width="0.5" height="30.9"/>
			<rect x="340.1" y="266.2" class="st4" width="0.5" height="30.9"/>
			<rect x="340.1" y="203.3" class="st4" width="0.5" height="30.9"/>
			<rect x="340.1" y="77.7" class="st4" width="0.5" height="30.9"/>
			<rect x="340.1" y="14.3" class="st4" width="0.5" height="0.6"/>
			<rect x="340.1" y="45.8" class="st4" width="0.5" height="0.5"/>
			<rect x="340.1" y="77.2" class="st4" width="0.5" height="0.5"/>
			<rect x="340.1" y="108.6" class="st4" width="0.5" height="0.5"/>
			<rect x="340.1" y="140" class="st4" width="0.5" height="0.5"/>
			<rect x="340.1" y="171.4" class="st4" width="0.5" height="0.6"/>
			<rect x="340.1" y="202.8" class="st4" width="0.5" height="0.5"/>
			<rect x="340.1" y="234.2" class="st4" width="0.5" height="0.5"/>
			<rect x="340.1" y="265.6" class="st4" width="0.5" height="0.5"/>
			<rect x="340.1" y="297" class="st4" width="0.5" height="0.5"/>
			<rect x="340.1" y="328.4" class="st4" width="0.5" height="0.6"/>
			<rect x="407.9" y="109.1" class="st4" width="0.5" height="30.9"/>
			<rect x="407.9" y="77.7" class="st4" width="0.5" height="30.9"/>
			<rect x="407.9" y="203.3" class="st4" width="0.5" height="30.9"/>
			<rect x="407.9" y="297.6" class="st4" width="0.5" height="30.9"/>
			<rect x="407.9" y="14.9" class="st4" width="0.5" height="30.9"/>
			<rect x="407.9" y="46.3" class="st4" width="0.5" height="30.9"/>
			<rect x="407.9" y="234.7" class="st4" width="0.5" height="30.9"/>
			<rect x="407.9" y="172" class="st4" width="0.5" height="30.9"/>
			<rect x="407.9" y="140.5" class="st4" width="0.5" height="30.9"/>
			<rect x="407.9" y="266.2" class="st4" width="0.5" height="30.9"/>
			<rect x="407.9" y="14.3" class="st4" width="0.5" height="0.6"/>
			<rect x="407.9" y="45.8" class="st4" width="0.5" height="0.5"/>
			<rect x="407.9" y="77.2" class="st4" width="0.5" height="0.5"/>
			<rect x="407.9" y="108.6" class="st4" width="0.5" height="0.5"/>
			<rect x="407.9" y="140" class="st4" width="0.5" height="0.5"/>
			<rect x="407.9" y="171.4" class="st4" width="0.5" height="0.6"/>
			<rect x="407.9" y="202.8" class="st4" width="0.5" height="0.5"/>
			<rect x="407.9" y="234.2" class="st4" width="0.5" height="0.5"/>
			<rect x="407.9" y="265.6" class="st4" width="0.5" height="0.5"/>
			<rect x="407.9" y="297" class="st4" width="0.5" height="0.5"/>
			<rect x="407.9" y="328.4" class="st4" width="0.5" height="0.6"/>
			<rect x="475.7" y="297.6" class="st4" width="0.5" height="30.9"/>
			<rect x="475.7" y="203.3" class="st4" width="0.5" height="30.9"/>
			<rect x="475.7" y="234.7" class="st4" width="0.5" height="30.9"/>
			<rect x="475.7" y="14.9" class="st4" width="0.5" height="30.9"/>
			<rect x="475.7" y="46.3" class="st4" width="0.5" height="30.9"/>
			<rect x="475.7" y="140.5" class="st4" width="0.5" height="30.9"/>
			<rect x="475.7" y="172" class="st4" width="0.5" height="30.9"/>
			<rect x="475.7" y="109.1" class="st4" width="0.5" height="30.9"/>
			<rect x="475.7" y="77.7" class="st4" width="0.5" height="30.9"/>
			<rect x="475.7" y="266.2" class="st4" width="0.5" height="30.9"/>
			<rect x="475.7" y="14.3" class="st4" width="0.5" height="0.6"/>
			<rect x="475.7" y="45.8" class="st4" width="0.5" height="0.5"/>
			<rect x="475.7" y="77.2" class="st4" width="0.5" height="0.5"/>
			<rect x="475.7" y="108.6" class="st4" width="0.5" height="0.5"/>
			<rect x="475.7" y="140" class="st4" width="0.5" height="0.5"/>
			<rect x="475.7" y="171.4" class="st4" width="0.5" height="0.6"/>
			<rect x="475.7" y="202.8" class="st4" width="0.5" height="0.5"/>
			<rect x="475.7" y="234.2" class="st4" width="0.5" height="0.5"/>
			<rect x="475.7" y="265.6" class="st4" width="0.5" height="0.5"/>
			<rect x="475.7" y="297" class="st4" width="0.5" height="0.5"/>
			<rect x="475.7" y="328.4" class="st4" width="0.5" height="0.6"/>
		</g>
		<g>
			<path class="st2" d="M84.9,338.2c0.6-0.1,1.6-0.2,2.6-0.2c1.4,0,2.3,0.2,2.9,0.8c0.5,0.4,0.8,1.1,0.8,1.9c0,1.2-0.8,2-1.7,2.4v0
				c0.7,0.3,1.1,0.9,1.3,1.8c0.3,1.2,0.5,2.3,0.7,2.6h-1.8c-0.1-0.3-0.4-1.1-0.6-2.2c-0.3-1.2-0.7-1.6-1.7-1.7h-0.9v3.9h-1.7V338.2z
				 M86.6,342.3h1c1.2,0,1.9-0.6,1.9-1.6c0-1-0.7-1.5-1.8-1.5c-0.5,0-0.9,0-1.1,0.1V342.3z"/>
			<path class="st2" d="M94,344.5c0,1.2,1,1.8,2.1,1.8c0.8,0,1.4-0.1,1.9-0.3l0.3,1.2c-0.6,0.2-1.4,0.4-2.4,0.4
				c-2.2,0-3.5-1.4-3.5-3.4c0-1.9,1.1-3.7,3.3-3.7c2.2,0,2.9,1.8,2.9,3.3c0,0.3,0,0.6-0.1,0.7H94z M97,343.3c0-0.6-0.3-1.7-1.4-1.7
				c-1.1,0-1.5,1-1.6,1.7H97z"/>
			<path class="st2" d="M104.6,346.5L104.6,346.5c-0.4,0.7-1.1,1.1-2.1,1.1c-1.5,0-2.9-1.3-2.9-3.5c0-2.5,1.6-3.7,3.1-3.7
				c1,0,1.6,0.4,2,1.1l0,0l0-0.9h1.7c0,0.6-0.1,1.3-0.1,2v7.6h-1.7V346.5z M104.6,343.5c0-0.1,0-0.3,0-0.4c-0.2-0.6-0.7-1.2-1.5-1.2
				c-1.1,0-1.7,0.9-1.7,2.2c0,1.2,0.6,2.2,1.7,2.2c0.7,0,1.3-0.4,1.5-1.1c0.1-0.2,0.1-0.4,0.1-0.5V343.5z"/>
			<path class="st2" d="M114.3,345.4c0,0.8,0,1.5,0.1,2h-1.5l-0.1-1h0c-0.3,0.5-1,1.2-2.2,1.2c-1.2,0-2.4-0.7-2.4-3v-4h1.7v3.7
				c0,1.1,0.4,1.9,1.3,1.9c0.7,0,1.1-0.5,1.3-0.9c0.1-0.2,0.1-0.3,0.1-0.5v-4.1h1.7V345.4z"/>
			<path class="st2" d="M118,338.7c0,0.5-0.4,0.9-1,0.9c-0.6,0-1-0.4-1-0.9c0-0.5,0.4-0.9,1-0.9C117.6,337.8,117.9,338.2,118,338.7z
				 M116.1,347.5v-6.8h1.7v6.8H116.1z"/>
			<path class="st2" d="M119.7,342.8c0-0.9,0-1.6-0.1-2.2h1.5l0.1,1.3h0.1c0.3-1,1.1-1.5,1.9-1.5c0.2,0,0.3,0,0.4,0v1.6
				c-0.1,0-0.3-0.1-0.5-0.1c-0.8,0-1.4,0.5-1.5,1.3c0,0.2-0.1,0.3-0.1,0.5v3.5h-1.7V342.8z"/>
			<path class="st2" d="M125.8,344.5c0,1.2,1,1.8,2.1,1.8c0.8,0,1.4-0.1,1.9-0.3l0.3,1.2c-0.6,0.2-1.4,0.4-2.4,0.4
				c-2.2,0-3.5-1.4-3.5-3.4c0-1.9,1.1-3.7,3.3-3.7c2.2,0,2.9,1.8,2.9,3.3c0,0.3,0,0.6-0.1,0.7H125.8z M128.8,343.3
				c0-0.6-0.3-1.7-1.4-1.7c-1.1,0-1.5,1-1.6,1.7H128.8z"/>
			<path class="st2" d="M131.8,342.7c0-0.8,0-1.4-0.1-2h1.5l0.1,1h0c0.3-0.5,1-1.2,2.1-1.2c0.9,0,1.6,0.5,1.9,1.3h0
				c0.2-0.4,0.5-0.7,0.8-0.9c0.4-0.3,0.8-0.4,1.4-0.4c1.1,0,2.3,0.8,2.3,3v4h-1.7v-3.8c0-1.1-0.4-1.8-1.2-1.8c-0.6,0-1,0.4-1.2,0.9
				c0,0.2-0.1,0.4-0.1,0.6v4.1H136v-4c0-1-0.4-1.6-1.2-1.6c-0.6,0-1.1,0.5-1.2,1c-0.1,0.2-0.1,0.4-0.1,0.6v4h-1.7V342.7z"/>
			<path class="st2" d="M144.9,344.5c0,1.2,1,1.8,2.1,1.8c0.8,0,1.4-0.1,1.9-0.3l0.3,1.2c-0.6,0.2-1.4,0.4-2.4,0.4
				c-2.2,0-3.5-1.4-3.5-3.4c0-1.9,1.1-3.7,3.3-3.7c2.2,0,2.9,1.8,2.9,3.3c0,0.3,0,0.6-0.1,0.7H144.9z M147.9,343.3
				c0-0.6-0.3-1.7-1.4-1.7c-1.1,0-1.5,1-1.6,1.7H147.9z"/>
			<path class="st2" d="M150.9,342.7c0-0.8,0-1.4-0.1-2h1.5l0.1,1h0c0.3-0.5,1-1.2,2.2-1.2c1.2,0,2.4,0.8,2.4,2.9v4h-1.7v-3.9
				c0-1-0.4-1.7-1.3-1.7c-0.7,0-1.2,0.5-1.3,1c-0.1,0.2-0.1,0.4-0.1,0.6v4h-1.7V342.7z"/>
			<path class="st2" d="M160.8,338.7v1.9h1.6v1.3h-1.6v3c0,0.8,0.2,1.3,0.9,1.3c0.3,0,0.5,0,0.7-0.1l0,1.3c-0.3,0.1-0.7,0.2-1.2,0.2
				c-0.6,0-1.2-0.2-1.5-0.6c-0.4-0.4-0.5-1-0.5-1.9v-3.2h-1v-1.3h1v-1.5L160.8,338.7z"/>
			<path class="st2" d="M163.6,345.9c0.4,0.2,1.1,0.5,1.8,0.5c0.8,0,1.1-0.3,1.1-0.8c0-0.5-0.3-0.7-1.1-1c-1.3-0.5-1.9-1.2-1.9-2
				c0-1.2,1-2.1,2.6-2.1c0.8,0,1.4,0.2,1.8,0.4l-0.3,1.2c-0.3-0.2-0.8-0.4-1.4-0.4c-0.6,0-1,0.3-1,0.7c0,0.4,0.3,0.6,1.2,1
				c1.2,0.4,1.8,1.1,1.8,2.1c0,1.2-1,2.1-2.8,2.1c-0.8,0-1.6-0.2-2.1-0.5L163.6,345.9z"/>
			<path class="st2" d="M187,338.2c0.8-0.1,1.7-0.2,2.7-0.2c1.8,0,3,0.4,3.9,1.1c0.9,0.7,1.5,1.9,1.5,3.5c0,1.7-0.6,2.9-1.5,3.8
				c-0.9,0.9-2.4,1.3-4.3,1.3c-1,0-1.8-0.1-2.3-0.1V338.2z M188.7,346.1c0.2,0,0.6,0,1,0c2.2,0,3.6-1.2,3.6-3.6
				c0-2.1-1.2-3.3-3.3-3.3c-0.5,0-0.9,0-1.2,0.1V346.1z"/>
			<path class="st2" d="M197.7,344.5c0,1.2,1,1.8,2.1,1.8c0.8,0,1.4-0.1,1.9-0.3l0.3,1.2c-0.6,0.2-1.4,0.4-2.4,0.4
				c-2.2,0-3.5-1.4-3.5-3.4c0-1.9,1.1-3.7,3.3-3.7c2.2,0,2.9,1.8,2.9,3.3c0,0.3,0,0.6-0.1,0.7H197.7z M200.7,343.3
				c0-0.6-0.3-1.7-1.4-1.7c-1.1,0-1.5,1-1.6,1.7H200.7z"/>
			<path class="st2" d="M203.7,345.9c0.4,0.2,1.1,0.5,1.8,0.5c0.8,0,1.1-0.3,1.1-0.8c0-0.5-0.3-0.7-1.1-1c-1.3-0.5-1.9-1.2-1.9-2
				c0-1.2,1-2.1,2.6-2.1c0.8,0,1.4,0.2,1.8,0.4l-0.3,1.2c-0.3-0.2-0.8-0.4-1.4-0.4c-0.6,0-1,0.3-1,0.7c0,0.4,0.3,0.6,1.2,1
				c1.2,0.4,1.8,1.1,1.8,2.1c0,1.2-1,2.1-2.8,2.1c-0.8,0-1.6-0.2-2.1-0.5L203.7,345.9z"/>
			<path class="st2" d="M211.4,338.7c0,0.5-0.4,0.9-1,0.9c-0.6,0-1-0.4-1-0.9c0-0.5,0.4-0.9,1-0.9
				C211,337.8,211.4,338.2,211.4,338.7z M209.6,347.5v-6.8h1.7v6.8H209.6z"/>
			<path class="st2" d="M219.4,340.6c0,0.5-0.1,1-0.1,2v3.9c0,1.4-0.3,2.5-1,3.1c-0.7,0.6-1.7,0.8-2.6,0.8c-0.9,0-1.8-0.2-2.4-0.5
				l0.4-1.3c0.4,0.3,1.2,0.5,2,0.5c1.1,0,2-0.6,2-2.1v-0.6h0c-0.4,0.6-1.1,1-2,1c-1.7,0-2.9-1.4-2.9-3.3c0-2.2,1.5-3.6,3.1-3.6
				c1,0,1.7,0.5,2,1.1h0l0.1-0.9H219.4z M217.6,343.4c0-0.2,0-0.3-0.1-0.5c-0.2-0.6-0.7-1.1-1.4-1.1c-1,0-1.7,0.8-1.7,2.2
				c0,1.2,0.6,2.1,1.7,2.1c0.6,0,1.2-0.4,1.4-1c0-0.2,0.1-0.4,0.1-0.6V343.4z"/>
			<path class="st2" d="M221.1,342.7c0-0.8,0-1.4-0.1-2h1.5l0.1,1h0c0.3-0.5,1-1.2,2.2-1.2c1.2,0,2.4,0.8,2.4,2.9v4h-1.7v-3.9
				c0-1-0.4-1.7-1.3-1.7c-0.7,0-1.2,0.5-1.3,1c-0.1,0.2-0.1,0.4-0.1,0.6v4h-1.7V342.7z"/>
			<path class="st2" d="M258.2,338.2c0.5-0.1,1.5-0.2,2.5-0.2c1.3,0,2.1,0.2,2.7,0.6c0.6,0.4,1,1,1,1.8c0,0.9-0.5,1.7-1.6,2v0
				c1,0.3,1.9,1,1.9,2.3c0,0.8-0.4,1.5-0.9,1.9c-0.7,0.6-1.8,0.9-3.5,0.9c-1,0-1.7-0.1-2.1-0.1V338.2z M259.9,341.9h0.9
				c1.2,0,1.9-0.6,1.9-1.4c0-0.9-0.7-1.3-1.8-1.3c-0.5,0-0.8,0-1,0.1V341.9z M259.9,346.2c0.2,0,0.5,0,0.9,0c1.1,0,2.1-0.4,2.1-1.6
				c0-1.1-1-1.5-2.1-1.5h-0.9V346.2z"/>
			<path class="st2" d="M272.3,345.4c0,0.8,0,1.5,0.1,2h-1.5l-0.1-1h0c-0.3,0.5-1,1.2-2.2,1.2c-1.2,0-2.4-0.7-2.4-3v-4h1.7v3.7
				c0,1.1,0.4,1.9,1.3,1.9c0.7,0,1.1-0.5,1.3-0.9c0.1-0.2,0.1-0.3,0.1-0.5v-4.1h1.7V345.4z"/>
			<path class="st2" d="M276,338.7c0,0.5-0.4,0.9-1,0.9c-0.6,0-1-0.4-1-0.9c0-0.5,0.4-0.9,1-0.9C275.6,337.8,276,338.2,276,338.7z
				 M274.1,347.5v-6.8h1.7v6.8H274.1z"/>
			<path class="st2" d="M277.7,337.5h1.7v9.9h-1.7V337.5z"/>
			<path class="st2" d="M287.6,337.5v8c0,0.7,0,1.5,0.1,1.9h-1.5l-0.1-1.1h0c-0.4,0.8-1.2,1.2-2.2,1.2c-1.6,0-2.9-1.4-2.9-3.5
				c0-2.3,1.4-3.6,3.1-3.6c0.9,0,1.6,0.4,1.9,0.9h0v-3.9H287.6z M285.9,343.5c0-0.1,0-0.3,0-0.4c-0.2-0.7-0.7-1.2-1.5-1.2
				c-1.1,0-1.7,1-1.7,2.3c0,1.2,0.6,2.2,1.7,2.2c0.7,0,1.3-0.5,1.5-1.2c0-0.2,0.1-0.3,0.1-0.5V343.5z"/>
			<path class="st2" d="M331.3,339.5h-2.7V338h7.1v1.4h-2.7v8h-1.7V339.5z"/>
			<path class="st2" d="M337,344.5c0,1.2,1,1.8,2.1,1.8c0.8,0,1.4-0.1,1.9-0.3l0.3,1.2c-0.6,0.2-1.4,0.4-2.4,0.4
				c-2.2,0-3.5-1.4-3.5-3.4c0-1.9,1.1-3.7,3.3-3.7c2.2,0,2.9,1.8,2.9,3.3c0,0.3,0,0.6-0.1,0.7H337z M340,343.3
				c0-0.6-0.3-1.7-1.4-1.7c-1.1,0-1.5,1-1.6,1.7H340z"/>
			<path class="st2" d="M342.9,345.9c0.4,0.2,1.1,0.5,1.8,0.5c0.8,0,1.1-0.3,1.1-0.8c0-0.5-0.3-0.7-1.1-1c-1.3-0.5-1.9-1.2-1.9-2
				c0-1.2,1-2.1,2.6-2.1c0.8,0,1.4,0.2,1.8,0.4l-0.3,1.2c-0.3-0.2-0.8-0.4-1.4-0.4c-0.6,0-1,0.3-1,0.7c0,0.4,0.3,0.6,1.2,1
				c1.2,0.4,1.8,1.1,1.8,2.1c0,1.2-1,2.1-2.8,2.1c-0.8,0-1.6-0.2-2.1-0.5L342.9,345.9z"/>
			<path class="st2" d="M350.8,338.7v1.9h1.6v1.3h-1.6v3c0,0.8,0.2,1.3,0.9,1.3c0.3,0,0.5,0,0.7-0.1l0,1.3c-0.3,0.1-0.7,0.2-1.2,0.2
				c-0.6,0-1.2-0.2-1.5-0.6c-0.4-0.4-0.5-1-0.5-1.9v-3.2h-1v-1.3h1v-1.5L350.8,338.7z"/>
			<path class="st2" d="M377,338.2c0.6-0.1,1.5-0.2,2.6-0.2c1.3,0,2.2,0.3,2.8,0.8c0.6,0.5,0.9,1.2,0.9,2.1c0,0.9-0.3,1.6-0.8,2.1
				c-0.7,0.7-1.8,1-3,1c-0.3,0-0.6,0-0.8-0.1v3.6H377V338.2z M378.7,342.5c0.2,0.1,0.5,0.1,0.8,0.1c1.3,0,2.1-0.6,2.1-1.7
				c0-1-0.7-1.6-1.9-1.6c-0.5,0-0.8,0-1,0.1V342.5z"/>
			<path class="st2" d="M384.6,342.8c0-0.9,0-1.6-0.1-2.2h1.5l0.1,1.3h0.1c0.3-1,1.1-1.5,1.9-1.5c0.2,0,0.3,0,0.4,0v1.6
				c-0.1,0-0.3-0.1-0.5-0.1c-0.8,0-1.4,0.5-1.5,1.3c0,0.2-0.1,0.3-0.1,0.5v3.5h-1.7V342.8z"/>
			<path class="st2" d="M395.9,344c0,2.5-1.8,3.6-3.5,3.6c-1.9,0-3.4-1.3-3.4-3.5c0-2.2,1.5-3.6,3.5-3.6
				C394.5,340.5,395.9,341.9,395.9,344z M390.8,344.1c0,1.3,0.6,2.3,1.7,2.3c1,0,1.7-1,1.7-2.3c0-1.1-0.5-2.3-1.7-2.3
				C391.2,341.8,390.8,342.9,390.8,344.1z"/>
			<path class="st2" d="M403.6,337.5v8c0,0.7,0,1.5,0.1,1.9h-1.5l-0.1-1.1h0c-0.4,0.8-1.2,1.2-2.2,1.2c-1.6,0-2.9-1.4-2.9-3.5
				c0-2.3,1.4-3.6,3.1-3.6c0.9,0,1.6,0.4,1.9,0.9h0v-3.9H403.6z M401.9,343.5c0-0.1,0-0.3,0-0.4c-0.2-0.7-0.7-1.2-1.5-1.2
				c-1.1,0-1.7,1-1.7,2.3c0,1.2,0.6,2.2,1.7,2.2c0.7,0,1.3-0.5,1.5-1.2c0-0.2,0.1-0.3,0.1-0.5V343.5z"/>
			<path class="st2" d="M411.5,345.4c0,0.8,0,1.5,0.1,2h-1.5l-0.1-1h0c-0.3,0.5-1,1.2-2.2,1.2c-1.2,0-2.4-0.7-2.4-3v-4h1.7v3.7
				c0,1.1,0.4,1.9,1.3,1.9c0.7,0,1.1-0.5,1.3-0.9c0.1-0.2,0.1-0.3,0.1-0.5v-4.1h1.7V345.4z"/>
			<path class="st2" d="M418.4,347.3c-0.4,0.2-1.1,0.3-1.9,0.3c-2.1,0-3.5-1.4-3.5-3.5c0-2,1.4-3.6,3.8-3.6c0.6,0,1.3,0.1,1.7,0.3
				l-0.3,1.3c-0.3-0.1-0.7-0.3-1.3-0.3c-1.3,0-2.1,1-2.1,2.2c0,1.4,0.9,2.2,2.1,2.2c0.6,0,1-0.1,1.4-0.3L418.4,347.3z"/>
			<path class="st2" d="M421.9,338.7v1.9h1.6v1.3h-1.6v3c0,0.8,0.2,1.3,0.9,1.3c0.3,0,0.5,0,0.7-0.1l0,1.3c-0.3,0.1-0.7,0.2-1.2,0.2
				c-0.6,0-1.2-0.2-1.5-0.6c-0.4-0.4-0.5-1-0.5-1.9v-3.2h-1v-1.3h1v-1.5L421.9,338.7z"/>
			<path class="st2" d="M426.6,338.7c0,0.5-0.4,0.9-1,0.9c-0.6,0-1-0.4-1-0.9c0-0.5,0.4-0.9,1-0.9
				C426.3,337.8,426.6,338.2,426.6,338.7z M424.8,347.5v-6.8h1.7v6.8H424.8z"/>
			<path class="st2" d="M434.9,344c0,2.5-1.8,3.6-3.5,3.6c-1.9,0-3.4-1.3-3.4-3.5c0-2.2,1.5-3.6,3.5-3.6
				C433.5,340.5,434.9,341.9,434.9,344z M429.7,344.1c0,1.3,0.6,2.3,1.7,2.3c1,0,1.7-1,1.7-2.3c0-1.1-0.5-2.3-1.7-2.3
				C430.2,341.8,429.7,342.9,429.7,344.1z"/>
			<path class="st2" d="M436.3,342.7c0-0.8,0-1.4-0.1-2h1.5l0.1,1h0c0.3-0.5,1-1.2,2.2-1.2c1.2,0,2.4,0.8,2.4,2.9v4h-1.7v-3.9
				c0-1-0.4-1.7-1.3-1.7c-0.7,0-1.2,0.5-1.3,1c-0.1,0.2-0.1,0.4-0.1,0.6v4h-1.7V342.7z"/>
		</g>
		<g>
			<path class="st5" d="M257.5,378.4v3.6h-5v13.2h-4.4V382h-5v-3.6H257.5z"/>
			<path class="st5" d="M263.5,382.2v13h-4.2v-13H263.5z M263.4,378.6c0,1.1-0.8,1.9-1.9,1.9c-1.1,0-1.9-0.8-1.9-1.9
				c0-1.2,0.8-2,1.9-2C262.5,376.6,263.4,377.4,263.4,378.6z"/>
			<path class="st5" d="M288.8,387v8.2h-4.3v-7c0-1.5-0.8-2.4-2.1-2.4c-1.5,0-2.4,1.2-2.4,2.9v6.4h-4.3v-7c0-1.5-0.8-2.4-2.1-2.4
				c-1.5,0-2.5,1.2-2.5,2.9v6.4h-4.2v-13h4.2v2.1c0.9-1.5,2.4-2.3,4.2-2.3c2.1,0,3.7,1.1,4.3,2.9c0.8-1.9,2.4-2.9,4.5-2.9
				C286.9,382.1,288.8,384,288.8,387z"/>
			<path class="st5" d="M303.9,389.9h-9c0.4,1.5,1.5,2.3,3,2.3c1.1,0,2.2-0.5,3-1.3l2.2,2.2c-1.3,1.5-3.3,2.3-5.7,2.3
				c-4.2,0-6.9-2.6-6.9-6.6c0-4,2.7-6.7,6.8-6.7C301.9,382.1,304.2,385.1,303.9,389.9z M299.8,387.6c0-1.5-1-2.5-2.4-2.5
				c-1.4,0-2.3,1-2.6,2.5H299.8z"/>
		</g>
		<path class="st6" d="M136.8,290.4c4.8,0,8.5,4.3,7.5,9.3c-0.6,3-3,5.4-6,5.9c-4.9,0.9-9.1-2.9-9.1-7.6
			C129.1,293.8,132.5,290.4,136.8,290.4L136.8,290.4z"/>
		<path class="st6" d="M204.8,274.4c4.8,0,8.5,4.3,7.5,9.3c-0.6,3-3,5.4-6,5.9c-4.9,0.9-9.1-2.9-9.1-7.6
			C197.1,277.8,200.5,274.4,204.8,274.4L204.8,274.4z"/>
		<path class="st6" d="M272.8,230.4c4.8,0,8.5,4.3,7.5,9.3c-0.6,3-3,5.4-6,5.9c-4.9,0.9-9.1-2.9-9.1-7.6
			C265.1,233.8,268.5,230.4,272.8,230.4L272.8,230.4z"/>
		<path class="st6" d="M339.8,163.4c4.8,0,8.5,4.3,7.5,9.3c-0.6,3-3,5.4-6,5.9c-4.9,0.9-9.1-2.9-9.1-7.6
			C332.1,166.8,335.5,163.4,339.8,163.4L339.8,163.4z"/>
		<path class="st6" d="M407.8,38.4c4.8,0,8.5,4.3,7.5,9.3c-0.6,3-3,5.4-6,5.9c-4.9,0.9-9.1-2.9-9.1-7.6
			C400.1,41.8,403.5,38.4,407.8,38.4L407.8,38.4z"/>
		<path class="st7" d="M136.7,297.5c130-5,240-157,272-251"/>
		<g>
			<path class="st5" d="M31.8,226.4c0,2.6,2.1,4.5,4.8,4.5c2.7,0,4.8-2,4.7-4.6c0-1.4-0.8-3-2-4.2l2.7-2.6c1.9,1.8,3.2,4.5,3.2,7
				c0,5.1-3.6,8.9-8.6,8.9c-4.8,0-8.5-3.8-8.6-8.9c0-2.5,1.1-5.1,2.8-6.8l3.1,2.5C32.7,223.3,31.8,225,31.8,226.4z"/>
			<path class="st5" d="M38.4,204.9c4,0,6.7,2.8,6.7,7.1c0,4.3-2.6,7.1-6.6,7.1c-4,0-6.6-2.8-6.7-7
				C31.8,207.8,34.4,204.9,38.4,204.9z M38.5,214.8c1.9,0,3.2-1.2,3.2-2.8c0-1.7-1.3-2.8-3.3-2.8c-1.9,0-3.2,1.2-3.2,2.8
				C35.3,213.7,36.6,214.8,38.5,214.8z"/>
			<path class="st5" d="M34.6,198.2c0,0.7,0.3,1.2,0.8,1.2c1.7,0,0.8-6.8,5.4-6.8c2.7,0,4.2,2.3,4.2,5.5c0,2.2-0.6,4.3-1.8,5.9
				l-2.8-1.3c1-1.5,1.6-3.2,1.6-4.6c0-0.8-0.3-1.4-0.8-1.4c-1.8,0-0.8,6.7-5.3,6.7c-2.7,0-4.2-2.3-4.2-5.3c0-1.9,0.5-3.8,1.5-5.4
				l2.8,1.4C35.1,195.7,34.6,197.2,34.6,198.2z"/>
			<path class="st5" d="M44.1,181.8c0.6,0.9,0.9,2.2,0.9,3.5c0,2.5-1.4,4.4-4.1,4.4l-5.6,0l0,1.8l-2.8,0l0-1.8l-3.6,0l0-4.2l3.6,0
				l0-3.4l2.8,0l0,3.4l4.9,0c1,0,1.4-0.4,1.4-1.2c0-0.4-0.2-1-0.4-1.6L44.1,181.8z"/>
			<path class="st5" d="M38.1,159.5c4,0,6.7,2.8,6.7,7.1c0,4.3-2.6,7.1-6.6,7.1c-4,0-6.6-2.8-6.7-7
				C31.5,162.4,34.1,159.5,38.1,159.5z M38.2,169.4c1.9,0,3.2-1.2,3.2-2.8c0-1.7-1.3-2.8-3.3-2.8c-1.9,0-3.2,1.2-3.2,2.8
				C35,168.3,36.3,169.4,38.2,169.4z"/>
			<path class="st5" d="M31.3,152.6l0.8,0l0-2.9l2.8,0l0,2.9l9.5-0.1l0,4.2l-9.5,0.1l0,1.8l-2.8,0l0-1.8l-1.2,0
				c-2.9,0-4.5-2.1-4.5-5c0-1.3,0.3-2.7,0.9-3.7l3,1.5c-0.3,0.5-0.5,1-0.5,1.5C29.9,151.9,30.4,152.6,31.3,152.6z"/>
			<path class="st5" d="M27.5,128.5H31l0.1,8.2l3.7,0l-0.1-7.5l3.5,0l0.1,7.5l6.1,0l0,4.4L27.6,141L27.5,128.5z"/>
			<path class="st5" d="M27.7,122.4c1.1,0,1.9,0.8,2,1.9s-0.8,1.9-1.9,2c-1.2,0-2-0.8-2-1.9S26.5,122.4,27.7,122.4z M31.3,122.2
				l13-0.1l0,4.2l-13,0.1L31.3,122.2z"/>
			<path class="st5" d="M31.3,115.3l3.6-2.1l-3.7-2.2l0-4.7l6.4,4.1l6.6-4.4l0,4.9l-3.9,2.3l4,2.5l0,4.7l-6.7-4.4l-6.3,4.2
				L31.3,115.3z"/>
		</g>
	</g>
</g>
</svg>
