<?xml version="1.0" encoding="utf-8"?>
<!-- Generator: Adobe Illustrator 21.1.0, SVG Export Plug-In . SVG Version: 6.00 Build 0)  -->
<svg version="1.1" id="Layer_1" xmlns="http://www.w3.org/2000/svg" xmlns:xlink="http://www.w3.org/1999/xlink" x="0px" y="0px"
	 viewBox="-49 141 512 512" style="enable-background:new -49 141 512 512;" xml:space="preserve">
<style type="text/css">
	.st0{fill:none;}
	.st1{fill:#C02D15;}
</style>
<g>
	<path class="st0" d="M385.8,235.2h-52.7c-57.6,0-97.2-25.7-120.3-47.3c-3.3-3.1-8.4-3.1-11.6,0c-23.1,21.6-62.7,47.3-120.3,47.3
		H28.2c-4.7,0-8.5,3.8-8.5,8.5v93.7c0,78.1,26.6,146.4,78.9,203c44.4,48,91.7,69.7,105.1,75.2c1,0.4,2.1,0.6,3.2,0.6
		s2.2-0.2,3.2-0.6c13.4-5.5,60.7-27.3,105.1-75.2c52.4-56.6,78.9-124.9,78.9-203v-93.7C394.3,239,390.5,235.2,385.8,235.2z
		 M385.8,337.4c0,75.9-25.8,142.2-76.7,197.2C272,574.7,230.5,598,207,607.7c-23.5-9.7-65-33-102.1-73.1
		C54,479.6,28.2,413.3,28.2,337.4v-93.7h52.7c59.7,0,101.1-26.2,126.1-49.6c25.1,23.4,66.4,49.6,126.1,49.6h52.7V337.4z"/>
	<path class="st1" d="M207,643.9C151.8,626.9-5.9,533.2-5.9,337.4v0C-5.9,533.2,151.8,626.9,207,643.9
		c55.2-17,212.9-110.7,212.9-306.5v0C419.9,533.2,262.2,626.9,207,643.9z"/>
	<path class="st1" d="M-4.8,220.7c0.9-2.3,2.2-4.3,3.9-6C-2.6,216.3-3.9,218.4-4.8,220.7z"/>
	<path class="st1" d="M-5.8,225c0.2-1.5,0.5-2.9,1-4.3C-5.3,222-5.6,223.5-5.8,225z"/>
	<path class="st1" d="M80.9,209.7c62.4,0,100.4-35.3,116.7-55.1c4.9-6,14-6,18.9,0c16.3,19.8,54.3,55.1,116.7,55.1h69.7
		c4.5,0,8.5,1.7,11.6,4.6c-3-2.8-7.1-4.6-11.6-4.6h-69.7c-62.4,0-100.4-35.3-116.7-55.1c-2.5-3-6-4.5-9.4-4.5c-3.5,0-7,1.5-9.4,4.5
		C181.2,174.4,143.3,209.7,80.9,209.7l-69.7,0c-4.1,0-7.9,1.5-10.8,3.9c2.9-2.4,6.7-3.9,10.8-3.9H80.9z"/>
	<path class="st1" d="M-5.9,226.7L-5.9,226.7c0-0.3,0-0.7,0.1-1C-5.8,226-5.9,226.4-5.9,226.7z"/>
	<path class="st1" d="M419.8,225.6c0,0.4,0.1,0.7,0.1,1.1v0C419.9,226.3,419.8,226,419.8,225.6z"/>
	<path class="st1" d="M419.8,225c-0.2-1.5-0.5-3-1.1-4.4c-0.5-1.2-1-2.4-1.8-3.4c-0.1-0.1-0.2-0.2-0.2-0.3c-0.3-0.5-0.7-0.9-1.1-1.4
		c-0.4-0.4-0.8-0.9-1.2-1.3c-3-2.8-7.1-4.6-11.6-4.6h-69.7c-62.4,0-100.4-35.3-116.7-55.1c-4.9-6-14-6-18.9,0
		c-16.3,19.8-54.3,55.1-116.7,55.1H11.2c-4.1,0-7.9,1.5-10.8,3.9c-0.3,0.2-0.5,0.5-0.8,0.7c-0.1,0.1-0.3,0.3-0.4,0.4
		c-1.7,1.7-3,3.8-3.9,6c-0.5,1.3-0.9,2.8-1,4.3c0,0.2,0,0.5,0,0.7c0,0.3-0.1,0.7-0.1,1v110.7c0,195.8,157.7,289.5,212.9,306.5
		c55.2-17,212.9-110.7,212.9-306.5V226.7c0-0.4,0-0.7-0.1-1.1C419.8,225.4,419.8,225.2,419.8,225z M394.3,337.4
		c0,78.1-26.6,146.4-78.9,203c-44.4,48-91.7,69.7-105.1,75.2c-1,0.4-2.1,0.6-3.2,0.6s-2.2-0.2-3.2-0.6
		c-13.4-5.5-60.7-27.3-105.1-75.2c-52.4-56.6-78.9-124.9-78.9-203v-93.7c0-4.7,3.8-8.5,8.5-8.5h52.7c57.6,0,97.2-25.7,120.3-47.3
		c3.3-3.1,8.4-3.1,11.6,0c23.1,21.6,62.7,47.3,120.3,47.3h52.7c4.7,0,8.5,3.8,8.5,8.5V337.4z"/>
	<path class="st1" d="M207,205.6c-25.9,22.4-67.6,46.7-126.1,46.7H36.7v85.1c0,73.7,25,138.1,74.4,191.4
		c39,42.1,80.1,62.8,95.9,69.7c15.8-6.9,56.9-27.6,95.9-69.7c49.4-53.3,74.4-117.7,74.4-191.4v-85.1h-44.2
		C274.6,252.2,232.9,228,207,205.6z M237.8,457.6c0.3,2.9-0.6,5.8-2.6,8c-1.9,2.2-4.7,3.4-7.7,3.4h-41.2c-2.9,0-5.7-1.2-7.7-3.4
		c-1.9-2.2-2.9-5.1-2.6-8l6.5-58.4c-10.5-7.7-16.8-19.8-16.8-33.1c0-22.7,18.5-41.2,41.2-41.2s41.2,18.5,41.2,41.2
		c0,13.3-6.3,25.4-16.8,33.1L237.8,457.6z"/>
	<path class="st1" d="M207,194.1c-25.1,23.4-66.4,49.6-126.1,49.6H28.2v93.7c0,75.9,25.8,142.2,76.7,197.2
		C142,574.7,183.5,598,207,607.7c23.5-9.7,65-33,102.1-73.1c50.9-54.9,76.7-121.3,76.7-197.2v-93.7h-52.7
		C273.4,243.7,232.1,217.6,207,194.1z M377.3,337.4c0,73.7-25,138.1-74.4,191.4c-39,42.1-80.1,62.8-95.9,69.7
		c-15.8-6.9-56.9-27.6-95.9-69.7c-49.4-53.3-74.4-117.7-74.4-191.4v-85.1h44.2c58.6,0,100.2-24.3,126.1-46.7
		c25.9,22.4,67.6,46.7,126.1,46.7h44.2V337.4z"/>
</g>
</svg>
