<?xml version="1.0" encoding="utf-8"?>
<!-- Generator: Adobe Illustrator 21.1.0, SVG Export Plug-In . SVG Version: 6.00 Build 0)  -->
<svg version="1.1" id="Layer_1" xmlns="http://www.w3.org/2000/svg" xmlns:xlink="http://www.w3.org/1999/xlink" x="0px" y="0px"
	 viewBox="-49 141 512 512" style="enable-background:new -49 141 512 512;" xml:space="preserve">
<style type="text/css">
	.st0{fill:#C02D15;}
	.st1{fill:#F1CCCC;}
</style>
<g>
	<path class="st0" d="M431.7,330.9c-8.5-1.2-137.3-19.9-145.2-21.1l-64.9-131.6c-6-12.1-23.2-12.1-29.2,0l-64.9,131.6l-145.2,21.1
		c-6.1,0.9-11.2,5.2-13.1,11.1c-1.9,5.9-0.3,12.4,4.1,16.7L78.3,461.1L53.5,605.7c-2.3,13.3,11.7,23.4,23.6,17.2L207,554.6
		c141.3,74.3,131.8,70.1,137.4,70.1c10,0,17.8-9,16-19l-24.8-144.6l105.1-102.4C450.4,349.3,445,332.9,431.7,330.9z"/>
	<g>
		<path class="st1" d="M168.7,291.1l54.3-110l-1.4-2.8c-6-12.1-23.2-12.1-29.2,0l-64.9,131.6l22-3.9
			C151,305.6,162.8,303.1,168.7,291.1z"/>
		<path class="st1" d="M88.6,599.5l22.1-128.8c2.6-15.2-6.6-24.9-6.7-25L8.3,352.5c-7.7-7.5-6.1-20.4,3.3-25.8l-29.4,4.3
			c-6.1,0.9-11.2,5.2-13.1,11.1c-1.9,5.9-0.3,12.4,4.1,16.7L78.3,461.1L53.5,605.7c-2.3,13.3,11.7,23.4,23.6,17.2l16.5-8.7
			C89.6,610.5,87.6,605,88.6,599.5z"/>
	</g>
</g>
</svg>
