<?xml version="1.0" encoding="utf-8"?>
<!-- Generator: Adobe Illustrator 21.1.0, SVG Export Plug-In . SVG Version: 6.00 Build 0)  -->
<svg version="1.1" id="Layer_1" xmlns="http://www.w3.org/2000/svg" xmlns:xlink="http://www.w3.org/1999/xlink" x="0px" y="0px"
	 viewBox="-49 141 512 512" style="enable-background:new -49 141 512 512;" xml:space="preserve">
<style type="text/css">
	.st0{fill:#C02D15;}
</style>
<path class="st0" d="M455.7,212.2l-74.6,10.7l10.7-74.6L335,205c-38.6-26.3-85.3-41.7-135.6-41.7c-133.2,0-241.2,108-241.2,241.2
	s108,241.2,241.2,241.2c133.2,0,241.2-108,241.2-241.2c0-50.3-15.4-96.9-41.7-135.6L455.7,212.2z M338,543.1
	c-37,37-86.2,57.4-138.6,57.4S97.9,580.1,60.9,543.1c-37-37-57.4-86.2-57.4-138.6S23.9,303,60.9,266c37-37,86.2-57.4,138.6-57.4
	c44.7,0,87.2,14.9,121.7,42.3l-53.9,53.9c-19.3-13.1-42.6-20.8-67.8-20.8c-66.6,0-120.6,54-120.6,120.6s54,120.6,120.6,120.6
	s120.6-54,120.6-120.6c0-25.1-7.7-48.5-20.8-67.8l53.9-53.9c27.4,34.5,42.3,76.9,42.3,121.7C395.4,456.9,375,506.1,338,543.1z
	 M274.8,404.5c0,41.6-33.8,75.4-75.4,75.4s-75.4-33.8-75.4-75.4s33.8-75.4,75.4-75.4c12.6,0,24.4,3.1,34.8,8.6l-44.8,44.8
	c-8.8,8.8-8.8,23.1,0,32c4.4,4.4,10.2,6.6,16,6.6s11.6-2.2,16-6.6l44.8-44.8C271.7,380.1,274.8,392,274.8,404.5z"/>
</svg>
